<svg width="95" height="41" viewBox="0 0 95 41" fill="none" xmlns="http://www.w3.org/2000/svg">
<g clip-path="url(#clip0_870_1109)">
<path d="M74.2188 10.8904C74.2188 12.1076 74.6641 12.2357 76 11.6591C77.3359 11.0826 77.3359 10.6982 76 10.1216C74.6641 9.54507 74.2188 9.67319 74.2188 10.8904Z" fill="#5A5A5A"/>
<path d="M66.7969 11.147C66.7969 11.6595 67.5391 12.3002 68.2812 12.4923C69.1719 12.6845 69.7656 12.4283 69.7656 11.9158C69.7656 11.4033 69.1719 10.7627 68.2812 10.5705C67.5391 10.3783 66.7969 10.6345 66.7969 11.147Z" fill="#5A5A5A"/>
<path d="M80.6045 11.2111C79.417 12.6205 81.4951 13.3251 83.1279 12.172C85.0576 10.8908 84.9092 10.2501 83.1279 10.2501C82.2373 10.2501 81.1982 10.6986 80.6045 11.2111Z" fill="#5A5A5A"/>
<path d="M59.6752 12.8764C59.9721 13.3249 61.1596 13.8374 62.1986 13.9655C63.3861 14.1577 63.9799 13.9014 63.5346 13.3889C63.2377 12.9405 62.0502 12.428 61.0111 12.2999C59.8236 12.1077 59.2299 12.3639 59.6752 12.8764Z" fill="#5A5A5A"/>
<path d="M86.837 12.8767C86.2433 13.2611 86.0949 13.7095 86.5402 13.9017C87.5792 14.3501 90.548 13.5173 90.548 12.7486C90.548 11.9798 88.0245 11.9798 86.837 12.8767Z" fill="#5A5A5A"/>
<path d="M1.04055 13.9016C-1.33445 14.8625 0.298359 17.6813 5.1968 21.0766C14.6968 27.9313 24.4937 27.9953 34.1421 21.2688L38.4468 18.3219L41.1187 20.5C50.3218 27.9313 62.939 28.1235 71.5484 20.9485C74.3687 18.5141 74.814 18.386 76.2984 19.475C81.6421 23.4469 87.2827 25.9453 90.6968 25.9453C96.4859 25.9453 96.189 23.1266 89.9546 18.7063C80.3062 11.7875 70.6577 11.7235 60.8609 18.45L56.5562 21.3969L53.8843 19.2188C52.3999 18.0016 49.4312 16.2078 47.2046 15.2469C39.9312 11.9797 29.8374 13.3891 23.7515 18.6422C22.1187 19.9875 20.4859 21.1407 20.189 21.1407C19.8921 21.1407 17.814 19.8594 15.7359 18.2578C10.5405 14.4782 4.0093 12.5563 1.04055 13.9016ZM9.20461 16.5922C10.9859 17.6172 13.8062 19.3469 15.1421 20.436C16.6265 21.5891 18.7046 22.4219 19.8921 22.2938C21.0796 22.1657 24.1968 20.6922 27.0171 18.9625C29.689 17.2328 32.9546 15.5032 34.2905 15.1828C38.8921 13.9657 44.3843 15.2469 49.8765 18.9625C52.6968 20.8844 55.9624 22.4219 56.853 22.2297C57.8921 22.1016 60.8609 20.5641 63.5327 18.8344C68.8765 15.311 72.2905 14.4141 77.7827 14.9907C84.1655 15.6953 96.189 24.9844 90.6968 24.9844C88.9155 24.9844 83.1265 21.9094 79.8609 19.2828C78.3765 18.1297 76.2984 17.2969 75.1109 17.425C73.9234 17.5532 70.8062 19.0266 67.9859 20.7563C65.314 22.486 62.0484 24.2157 60.7124 24.536C56.1109 25.7532 50.6187 24.4719 45.1265 20.7563C42.3062 18.8344 39.0405 17.2969 38.1499 17.4891C37.1109 17.6172 34.1421 19.1547 31.4702 20.8844C23.1577 26.3938 16.478 26.3938 8.16555 20.8203C0.743671 15.6953 1.33742 12.4922 9.20461 16.5922Z" fill="#5A5A5A"/>
<path d="M5.19642 26.3298C4.60267 26.7142 4.45424 27.1626 4.89955 27.3548C5.93861 27.8032 8.90736 26.9704 8.90736 26.2017C8.90736 25.4329 6.38392 25.4329 5.19642 26.3298Z" fill="#5A5A5A"/>
<path d="M31.4721 26.3296C31.7689 26.778 32.9564 27.2905 33.9955 27.4186C35.183 27.6108 35.7768 27.3546 35.3314 26.8421C35.0346 26.3936 33.8471 25.8811 32.808 25.753C31.6205 25.5608 31.0268 25.8171 31.4721 26.3296Z" fill="#5A5A5A"/>
<path d="M11.4318 27.8032C10.5411 28.8282 11.7286 29.5969 13.5099 29.0844C15.2912 28.636 15.1427 26.9063 13.5099 26.9063C12.7677 26.9063 11.8771 27.2907 11.4318 27.8032Z" fill="#5A5A5A"/>
<path d="M25.2344 27.8033C25.2344 28.3158 25.9766 28.9564 26.7188 29.1486C27.6094 29.3408 28.2031 29.0845 28.2031 28.572C28.2031 28.0595 27.6094 27.4189 26.7188 27.2267C25.9766 27.0345 25.2344 27.2908 25.2344 27.8033Z" fill="#5A5A5A"/>
<path d="M18.4077 28.2515C17.9624 28.6359 18.2593 29.2765 19.1499 29.6609C20.3374 30.1734 20.7827 29.9812 20.7827 28.9562C20.7827 27.4187 20.0405 27.1625 18.4077 28.2515Z" fill="#5A5A5A"/>
</g>
<defs>
<clipPath id="clip0_870_1109">
<rect width="95" height="41" fill="white"/>
</clipPath>
</defs>
</svg>
