<svg width="512" height="406" viewBox="0 0 512 406" fill="none" xmlns="http://www.w3.org/2000/svg">
<path d="M206.632 181.51C206.632 181.51 255.085 177.006 255.085 105.866C255.085 34.7203 215.445 0 165.232 0H0V397.571H165.232C165.232 397.571 266.099 401.56 266.099 280.226C266.099 280.228 270.497 181.51 206.632 181.51ZM153.338 70.6638H165.232C165.232 70.6638 187.691 70.6637 187.691 112.029C187.691 153.39 174.483 159.386 159.5 159.386H72.8031V70.6638H153.338ZM160.562 326.91H72.8031V220.664H165.232C165.232 220.664 198.707 220.114 198.707 275.263C198.707 321.766 173.704 326.558 160.562 326.91ZM400.624 101.154C278.513 101.154 278.621 253.913 278.621 253.913C278.621 253.913 270.243 405.887 400.624 405.887C400.624 405.887 509.274 413.659 509.274 300.167H453.397C453.397 300.167 455.261 342.906 402.488 342.906C402.488 342.906 346.602 347.596 346.602 273.738H511.138C511.138 273.737 529.141 101.154 400.624 101.154ZM345.987 220.664C345.987 220.664 352.811 159.385 401.865 159.385C450.91 159.385 450.296 220.664 450.296 220.664H345.987ZM463.312 72.3799H332.308V23.422H463.312V72.3799Z" fill="white"/>
</svg>
