<svg width="451" height="436" viewBox="0 0 451 436" fill="none" xmlns="http://www.w3.org/2000/svg">
<path d="M450.06 20.762L379.667 417.854C379.667 417.854 376.641 436 356.271 436C345.447 436 339.866 430.311 339.866 430.311L187.39 290.521L112.788 248.977L17.044 220.844C17.044 220.844 0 215.405 0 199.833C0 186.857 17.5326 180.67 17.5326 180.67L418.096 4.85836C418.096 4.85836 430.329 -0.0206955 439.255 6.63552e-05C444.742 6.63552e-05 451 2.5953 451 10.381C451 15.5715 450.06 20.762 450.06 20.762Z" fill="white"/>
<path d="M244.291 342.675L179.911 412.726C179.911 412.726 177.111 415.113 173.371 415.217C172.075 415.259 170.684 415.03 169.256 414.324L187.371 290.48L244.291 342.675Z" fill="white"/>
<path d="M373.898 87.1171C370.722 82.5495 364.859 81.7191 360.725 85.1863L112.75 249.143C112.75 249.143 152.325 371.472 158.357 392.649C164.408 413.847 169.257 414.346 169.257 414.346L187.372 290.501L372.131 101.65C376.266 98.1833 377.036 91.6848 373.898 87.1171Z" fill="white"/>
</svg>
