<svg width="37" height="52" viewBox="0 0 37 52" fill="none" xmlns="http://www.w3.org/2000/svg">
<path d="M23.8435 0.151284C23.3232 0.344376 22.8824 0.720395 22.4488 1.33016C22.1164 1.79764 21.6757 2.89521 21.6757 3.26107C21.6757 3.42367 21.4011 3.444 17.6508 3.46432L13.6186 3.49481L13.1778 3.77937C12.6287 4.13506 12.2023 4.73466 11.9422 5.52735C11.7543 6.09646 11.7399 6.23874 11.7182 7.73266L11.6893 9.33837H11.4797C11.0245 9.33837 10.1935 9.67373 9.53593 10.1311C8.97953 10.5071 8.73384 10.7611 8.25692 11.4217C7.7511 12.1229 7.64271 12.2347 7.50542 12.1636C7.15134 11.9807 6.32035 11.9603 5.82898 12.1229C5.09192 12.3668 4.5861 12.7429 4.03692 13.4847C3.43716 14.2774 3.06141 15.2531 2.93857 16.3201L2.85908 17.0315L2.4761 17.3059C1.50059 18.0275 0.850245 19.7348 0.973087 21.2795C1.01644 21.869 1.00199 21.9401 0.734628 22.6617C-0.0819128 24.8162 -0.219207 27.1333 0.329971 29.4605C0.626238 30.7105 1.04535 31.6455 1.78963 32.7024L2.45442 33.6577V38.5765C2.45442 43.1802 2.4472 43.485 2.33158 43.485C2.06422 43.485 1.28381 44.105 0.951409 44.5724C-0.320372 46.3611 -0.313146 49.0847 0.973087 50.792C2.51223 52.8347 4.9185 52.2046 5.85788 49.5217C6.08911 48.8611 6.10357 48.7696 6.10357 47.7026C6.10357 46.605 6.09634 46.5542 5.8362 45.8123C5.43877 44.6741 4.77398 43.9017 3.81292 43.4444C3.69007 43.3936 3.68285 43.0887 3.68285 39.0033C3.68285 35.3142 3.6973 34.6333 3.78401 34.674C4.94018 35.3041 6.24809 35.4463 7.47651 35.1008C7.67884 35.0398 7.70774 35.0703 7.85949 35.487C8.30028 36.676 9.38418 37.8854 10.4247 38.363C11.2413 38.7391 12.3541 38.7594 13.1489 38.4138C13.7632 38.1496 14.3412 37.7329 14.7965 37.2045L15.1144 36.8488L15.5913 37.0114C15.8587 37.1029 16.2634 37.2045 16.4946 37.2451C16.7475 37.2858 16.9065 37.3671 16.9065 37.4382C16.9065 37.5094 17.0221 37.8854 17.1594 38.2817C17.5062 39.2574 18.1421 40.0704 19.0454 40.7005L19.7246 41.1679V43.3326C19.7246 45.2025 19.7463 45.5887 19.8692 46.1477C20.0281 46.8692 20.4256 47.6009 20.8808 48.0074C21.4806 48.5359 21.6901 48.5664 24.8696 48.5664H27.8178L27.8611 48.8408C28.0346 49.8875 28.7933 51.1071 29.6026 51.6457C30.0578 51.9506 30.1518 51.9709 30.8166 51.9607C31.3947 51.9607 31.6187 51.9099 31.9366 51.727C32.5147 51.3916 33.035 50.8022 33.3746 50.0806C33.7865 49.2168 33.9093 48.5461 33.8732 47.4383C33.8443 46.666 33.8082 46.4525 33.5769 45.792C33.2518 44.8672 32.7676 44.2066 32.0956 43.7594C31.6403 43.4545 31.5609 43.4342 30.8166 43.4342C30.0651 43.4342 29.9928 43.4545 29.552 43.7594C29.2919 43.9424 28.9523 44.2371 28.8005 44.42C28.4464 44.8265 28.0129 45.7615 27.89 46.3712L27.7961 46.8387H24.9129C22.485 46.8387 21.9936 46.8184 21.7696 46.6863C21.0687 46.2696 20.9603 45.8529 20.9531 43.607C20.9531 42.6517 20.9675 41.859 20.9892 41.859C21.1409 41.859 21.5673 42.296 22.0514 42.9464C22.7885 43.9322 23.1136 44.1456 23.9157 44.1456C24.4649 44.1456 24.5733 44.1151 24.9129 43.8509C25.6138 43.3021 26.0113 42.4383 26.0691 41.3407C26.1052 40.5582 26.004 40.0297 25.556 38.6781L25.2598 37.7838L25.4404 37.6212C25.8378 37.2553 26.7917 35.7512 27.1096 34.989C27.2975 34.552 27.5504 33.7492 27.6805 33.2207C27.8033 32.6922 28.0057 32.0622 28.1213 31.8183C29.0679 29.8873 29.2269 27.4585 28.5476 25.3446C28.1791 24.2166 28.114 24.2775 29.6243 24.2775C30.8166 24.2775 30.925 24.2877 30.925 24.4503C30.925 24.7755 31.3296 25.8426 31.6331 26.3101C32.3413 27.428 33.5552 27.9666 34.5958 27.6312C35.7014 27.2654 36.6552 25.8934 36.9226 24.2877C37.1827 22.7328 36.6913 20.9238 35.7447 19.9381C34.2056 18.3527 32.0233 19.0742 31.1779 21.4625C31.0406 21.8486 30.925 22.2552 30.925 22.3568C30.925 22.5397 30.8455 22.5499 29.711 22.5499H28.4898L28.4031 22.0112C28.1863 20.619 27.3409 19.3588 26.3364 18.9421C26.0546 18.8202 26.0474 18.81 25.8668 17.9157C25.6572 16.8994 25.3393 15.9746 24.9057 15.1108C24.6311 14.5417 24.6167 14.501 24.66 13.9014C24.7034 13.1494 24.9418 12.6006 25.3393 12.3262C25.5922 12.1433 25.8017 12.1331 28.2441 12.1331H30.8744L30.9972 12.6514C31.2574 13.7083 31.9077 14.7348 32.6086 15.1819C34.1261 16.1575 36.0049 15.2022 36.6913 13.1189C37.8475 9.59243 35.4051 5.86272 32.8254 7.22452C32.0233 7.64119 31.2646 8.7286 31.0261 9.79569L30.9033 10.3445L28.1502 10.375C25.1297 10.4156 25.1297 10.4156 24.4505 11.066C24.1108 11.4014 23.67 12.2449 23.5833 12.7124C23.5617 12.875 23.5111 12.9969 23.4749 12.9969C23.4388 12.9969 23.2365 12.8343 23.0125 12.6412C22.167 11.879 20.9603 11.3709 19.9848 11.3709H19.4645L19.2477 10.9644C18.9514 10.4258 18.5468 9.97862 18.0626 9.65341C17.7086 9.41967 17.5785 9.38918 16.8703 9.38918C16.1694 9.38918 16.0321 9.41967 15.6708 9.65341C15.454 9.80585 15.1578 10.0599 15.0205 10.2327L14.7603 10.5477L14.269 10.1819C13.9944 9.97862 13.5897 9.73471 13.373 9.63308L12.9683 9.46032L12.9466 8.15949C12.9177 6.33021 13.0622 5.76109 13.6837 5.36475C13.9583 5.19198 14.2401 5.17166 17.7953 5.17166C21.3649 5.17166 21.6106 5.18182 21.6468 5.34442C21.9719 6.70623 22.5211 7.64119 23.3304 8.20014C23.8579 8.566 23.894 8.57616 24.6745 8.57616C25.4404 8.57616 25.491 8.55584 25.9751 8.23063C27.8828 6.90948 28.3236 3.51514 26.8712 1.36065C26.0835 0.191935 24.9418 -0.265386 23.8435 0.151284ZM25.4765 2.0009C26.1269 2.46838 26.4737 3.2814 26.481 4.30783C26.481 4.90743 26.4448 5.10052 26.2714 5.55784C25.5055 7.49892 23.5038 7.30583 22.9402 5.23263C22.7596 4.58222 22.8246 3.6066 23.0775 2.99684C23.2871 2.49887 23.7423 2.0009 24.1397 1.82813C24.4938 1.67569 25.1442 1.75699 25.4765 2.0009ZM34.7331 8.94202C35.2967 9.3282 35.7664 10.3648 35.7664 11.2185C35.7664 12.2144 35.3039 13.2205 34.6753 13.5965C34.2417 13.8608 33.5986 13.9014 33.2228 13.6778C32.5797 13.3018 32.0811 12.2754 32.0811 11.3303C32.0811 10.5782 32.2184 10.0701 32.587 9.52129C33.1578 8.6473 33.9671 8.42372 34.7331 8.94202ZM17.3834 11.1168C18.0843 11.4116 18.5251 12.1839 18.6407 13.3323C18.713 14.003 18.8431 14.2774 19.1465 14.3689C19.5368 14.4909 19.8619 14.0843 19.8692 13.4746C19.8692 13.1087 19.8764 13.0986 20.1437 13.0986C20.6062 13.0986 21.5022 13.4746 22.1309 13.9319C22.9474 14.5213 23.8362 15.7714 24.2553 16.9096C24.4866 17.5397 24.7828 18.6372 24.7828 18.8506C24.7828 18.8608 24.66 18.932 24.5155 18.9929C23.5327 19.4299 23.1353 20.3954 23.7134 20.9645C23.9519 21.1982 24.1542 21.1677 24.6167 20.8222C25.8451 19.8974 27.2397 21.0661 27.2397 23.0275C27.2397 23.7491 27.0446 24.3487 26.6544 24.806C25.9101 25.6698 25.8451 25.7816 25.8957 26.1373C25.9173 26.3101 26.0257 26.5743 26.1341 26.7064C26.3798 27.0113 26.6761 26.9503 27.1241 26.5235C27.4998 26.1576 27.5287 26.178 27.666 27.1028C28.0635 29.7451 26.7556 32.367 24.8118 32.8244C24.0458 32.9971 22.9185 32.6719 22.4127 32.1231L22.2465 31.9402L22.4705 31.3304C22.7596 30.5073 22.8246 29.6739 22.6512 28.7999C22.4416 27.6922 21.9575 27.3263 21.5167 27.9361C21.2782 28.2715 21.2782 28.3629 21.4589 29.2776C21.5745 29.8467 21.4878 30.3955 21.1987 30.8833C20.9314 31.3203 20.6568 31.493 20.216 31.493C19.7535 31.493 19.4934 31.2898 19.1104 30.6394C18.7997 30.1109 18.5901 29.989 18.2722 30.1719C17.8531 30.4158 17.8025 31.0052 18.1421 31.7268C18.713 32.9362 19.8041 33.5358 20.7941 33.1801L21.2421 33.0175L21.6251 33.424C22.0948 33.9321 22.868 34.3894 23.5111 34.552C24.0964 34.6943 25.0141 34.6232 25.5416 34.3996C25.7367 34.3183 25.9101 34.2675 25.9318 34.2878C25.9968 34.3894 25.3031 35.5276 24.884 35.9951C24.3204 36.6455 23.4677 37.235 22.8029 37.4382C22.4777 37.5399 22.2176 37.6821 22.1381 37.8041C21.9502 38.0988 21.9719 38.6476 22.1815 38.9626C22.4055 39.298 22.7018 39.298 23.5111 38.9626C23.8507 38.8204 24.147 38.7086 24.1686 38.7086C24.2987 38.7086 24.8551 40.6903 24.8551 41.1679C24.8551 42.0826 24.1542 42.7127 23.5183 42.3671C23.4171 42.3163 23.1281 41.9911 22.8824 41.6456C22.261 40.7919 21.7913 40.3854 20.8952 39.9078C19.768 39.3183 19.1538 38.8813 18.7636 38.4037C18.4384 37.9972 18.1566 37.4281 18.2288 37.3264C18.2505 37.296 18.5685 37.1842 18.937 37.0825C19.6885 36.8691 19.9414 36.6151 19.9414 36.0663C19.9414 35.9037 19.8692 35.6496 19.7824 35.5073C19.5946 35.2126 19.3489 35.1618 18.8864 35.3447C17.9181 35.7106 16.5741 35.6598 15.5335 35.1923C15.1795 35.0398 14.8904 34.9687 14.7893 35.0093C14.7025 35.05 14.4424 35.3244 14.2112 35.6191C12.9827 37.2248 11.1473 37.3874 9.81774 36.0053C8.82778 34.989 8.28583 33.1597 8.45925 31.4422C8.52429 30.7817 8.69048 30.0804 8.86391 29.7146C9.00843 29.4097 8.97953 28.8203 8.81333 28.5662C8.43035 27.9971 7.98233 28.241 7.67161 29.176C7.556 29.5316 7.44038 29.8975 7.41148 30.0093C7.30309 30.4666 6.42151 29.928 6.17583 29.2573C6.11079 29.0947 6.04576 28.739 6.01685 28.4747C5.93014 27.5398 5.34483 27.1942 4.95463 27.8446C4.73785 28.2003 4.73062 28.3629 4.86792 29.1658C5.09192 30.5479 5.90846 31.6455 6.84785 31.8589C7.12244 31.9199 7.13689 31.9402 7.18024 32.3772C7.27418 33.3325 7.25973 33.3935 6.92011 33.4849C6.42151 33.6069 5.46045 33.5561 4.96908 33.3833C4.10918 33.0784 3.34322 32.4585 2.70011 31.554C1.68124 30.1109 1.26213 28.7186 1.26213 26.7166C1.26213 25.7003 1.29103 25.4259 1.47168 24.6536L1.68124 23.7592L1.86911 24.0031C2.43997 24.7349 2.8374 24.867 3.1409 24.43C3.26374 24.2674 3.32155 24.0743 3.32155 23.8507C3.31432 23.4645 3.24206 23.3222 2.88798 22.9462C2.58449 22.6312 2.27377 21.8588 2.20151 21.2592C2.12203 20.558 2.33158 19.745 2.72901 19.1962C3.10477 18.688 3.47329 18.4848 4.01524 18.4848C4.47771 18.495 4.90405 18.7693 5.31593 19.3385C5.72781 19.9076 5.9735 19.9482 6.29144 19.5112C6.55158 19.1352 6.55881 18.8303 6.29867 18.3222C5.91569 17.5905 5.12083 16.9197 4.47048 16.7978L4.13809 16.7368L4.20312 16.31C4.44881 14.7856 5.78562 13.4746 6.81894 13.749L7.07185 13.8201L6.96346 14.2368C6.81172 14.8567 6.8334 15.3039 7.04295 15.5884C7.39703 16.0966 7.9173 15.8018 8.0835 15.0091C8.35086 13.7591 9.04456 12.499 9.81774 11.8384C10.9667 10.8628 12.4769 10.8018 13.662 11.6859L14.0739 12.001L13.9727 12.5193C13.8137 13.373 13.8426 13.7795 14.0811 14.125C14.5147 14.7246 15.006 14.3587 15.1072 13.3526C15.1867 12.5091 15.4324 11.8892 15.8515 11.4929C16.4223 10.9542 16.7909 10.8628 17.3834 11.1168ZM34.5308 20.9747C34.9715 21.1881 35.2823 21.5641 35.5207 22.1637C35.6941 22.621 35.7303 22.8141 35.7303 23.4137C35.7231 24.2064 35.6147 24.6129 35.2317 25.1718C34.1044 26.869 32.0739 25.741 32.0811 23.4239C32.0884 21.6047 33.3168 20.3751 34.5308 20.9747ZM3.8635 45.355C4.49939 45.7716 4.91127 46.666 4.90405 47.6517C4.90405 48.6985 4.5861 49.4505 3.95744 49.9485C3.45884 50.3245 2.72901 50.3652 2.27377 50.0197C1.24045 49.2473 0.929731 47.5196 1.5873 46.168C2.07867 45.172 3.05418 44.8163 3.8635 45.355ZM31.5753 45.3245C32.2473 45.7513 32.6592 46.6355 32.652 47.6517C32.652 48.6985 32.334 49.4505 31.7054 49.9485C31.2068 50.3245 30.477 50.3652 30.0217 50.0197C28.9884 49.2473 28.6777 47.5196 29.3352 46.168C29.8122 45.2025 30.7949 44.8265 31.5753 45.3245Z" fill="#5A5A5A"/>
<path d="M11.2197 18.1189C10.3381 18.4238 9.47098 19.3689 9.04464 20.5072C8.77728 21.2185 8.66889 21.747 8.66166 22.4889C8.64721 23.2206 8.83509 23.5661 9.24697 23.5661C9.62995 23.5661 9.80337 23.2613 9.89009 22.4381C9.9768 21.5641 10.1647 21.0559 10.6199 20.4767C11.0101 19.9889 11.5087 19.7043 11.9784 19.7043C12.2819 19.7043 12.6432 19.2368 12.6432 18.8405C12.6432 18.6779 12.5565 18.4543 12.4336 18.2714C12.1952 17.936 11.8772 17.8953 11.2197 18.1189Z" fill="#5A5A5A"/>
<path d="M18.684 22.5804C18.59 22.7125 18.4961 22.9971 18.4672 23.2206C18.3805 23.8507 18.077 24.6434 17.7012 25.2125C16.4728 27.1028 14.464 27.2247 13.1199 25.4971C12.9537 25.2938 12.7514 25.0601 12.6575 24.9991C12.3178 24.7451 11.8481 25.2024 11.8481 25.7918C11.8481 26.5337 13.1777 27.9158 14.2111 28.2512L14.5868 28.3731L14.464 28.678C14.1966 29.3284 13.4668 29.9179 12.7586 30.0601C12.5057 30.111 12.2239 30.2024 12.1444 30.2736C11.812 30.5175 11.7831 31.3406 12.0866 31.6455C12.3251 31.8793 13.0982 31.8386 13.6619 31.5541C14.6013 31.0866 15.3094 30.2227 15.7502 29.0032C15.967 28.3935 15.9814 28.3833 16.3789 28.2613C17.087 28.0581 17.8241 27.4585 18.4311 26.615C18.7273 26.1983 19.0742 25.5987 19.197 25.2938C19.4572 24.6434 19.7245 23.556 19.7245 23.1393C19.7245 22.4483 19.038 22.0824 18.684 22.5804Z" fill="#5A5A5A"/>
</svg>
